<svg width="674" height="674" viewBox="0 0 674 674" fill="none" xmlns="http://www.w3.org/2000/svg">
<path d="M457.667 387.307V287.104L479.693 309.131C490.37 319.808 507.62 319.808 518.22 309.131L597.141 230.209H645.824C660.907 230.209 673.079 242.381 673.079 257.464V418.437C673.079 433.52 660.907 445.692 645.824 445.692H596.469L517.177 366.317C506.5 355.64 489.251 355.64 478.651 366.317L457.667 387.307Z" fill="#FFF500"/>
<path d="M445.28 77.432L479.701 43.0107C490.378 32.3336 507.628 32.3336 518.228 43.0107L632.097 156.808C642.701 167.485 642.701 184.735 632.097 195.335L597.228 230.204H484.931C469.848 230.204 457.676 242.376 457.676 257.459V287.099L386.816 216.239H417.952C433.035 216.239 445.207 204.067 445.207 188.984V77.432H445.28Z" fill="#FFF500"/>
<path d="M308.72 155.693L229.871 76.7667V28.084C229.871 13.0013 242.042 0.829346 257.125 0.829346H418.099C433.181 0.829346 445.353 13.0012 445.353 28.084V77.4387L365.905 156.813C355.228 167.49 355.228 184.74 365.905 195.34L386.812 216.247H286.687L308.713 194.22C319.39 183.616 319.39 166.371 308.713 155.693H308.72Z" fill="#FFF500"/>
<path d="M478.653 632.507L443.784 597.637L443.789 485.34C443.789 470.257 431.617 458.085 416.535 458.085H386.895L457.755 387.225V418.361C457.755 433.444 469.926 445.616 485.009 445.616H596.635L631.056 480.037C641.733 490.714 641.733 507.964 631.056 518.564L517.187 632.507C506.509 643.111 489.26 643.111 478.656 632.507H478.653Z" fill="#FFF500"/>
<path d="M286.693 458.08H386.896L364.865 480.184C354.188 490.861 354.188 508.111 364.865 518.711L443.787 597.632V646.315C443.787 661.397 431.615 673.569 416.532 673.569H255.559C240.476 673.569 228.304 661.397 228.304 646.315V596.96L307.673 517.591C318.35 506.914 318.35 489.664 307.673 479.064L286.693 458.08Z" fill="#FFF500"/>
<path d="M155.267 631.387L41.4746 517.595C30.8705 506.918 30.8705 489.668 41.4746 479.068L76.3439 444.199H188.568C203.651 444.199 215.823 432.027 215.823 416.944V387.304L286.683 458.164H255.547C240.464 458.164 228.292 470.336 228.292 485.419V597.044L193.797 631.388C183.193 642.065 165.943 642.064 155.267 631.387Z" fill="#FFF500"/>
<path d="M42.6001 155.693L156.392 41.9013C167.069 31.2972 184.319 31.2972 194.919 41.9013L229.788 76.7707V188.995C229.788 204.077 241.96 216.249 257.043 216.249H286.683L215.823 287.109V255.973C215.823 240.891 203.651 228.719 188.568 228.719L77.0214 228.713L42.6001 194.219C31.923 183.615 31.923 166.371 42.6001 155.693Z" fill="#FFF500"/>
<path d="M76.3468 444.12H27.6641C12.5814 444.12 0.409424 431.948 0.409424 416.865V255.959C0.409424 240.876 12.5813 228.704 27.6641 228.704H77.0188L156.388 308.073C167.065 318.75 184.315 318.75 194.915 308.073L215.821 287.167V387.369L193.8 365.271C183.123 354.594 165.873 354.594 155.273 365.271L76.3468 444.12Z" fill="#FFF500"/>
<path d="M445.277 77.4346V189.061C445.277 204.145 433.105 216.317 418.022 216.317H257.048C241.964 216.317 229.792 204.145 229.792 189.061V28.08C229.792 12.9966 241.964 0.824402 257.048 0.824402H418.029C433.113 0.824402 445.285 12.9966 445.285 28.08L445.277 77.4346Z" stroke="black" stroke-width="0.746667" stroke-miterlimit="10"/>
<path d="M597.224 230.277L518.301 309.125C507.697 319.803 490.452 319.803 479.776 309.125L365.984 195.333C355.306 184.656 355.306 167.407 365.984 156.808L479.776 43.0156C490.453 32.3382 507.702 32.3382 518.301 43.0156L632.093 156.808C642.697 167.485 642.697 184.734 632.093 195.333L597.224 230.277Z" stroke="black" stroke-width="0.746667" stroke-miterlimit="10"/>
<path d="M596.552 445.691H484.925C469.842 445.691 457.67 433.518 457.67 418.435V257.454C457.67 242.37 469.842 230.198 484.925 230.198H645.832C660.915 230.198 673.088 242.37 673.088 257.454V418.435C673.088 433.518 660.915 445.691 645.832 445.691H596.552Z" stroke="black" stroke-width="0.746667" stroke-miterlimit="10"/>
<path d="M443.709 597.637L364.861 518.715C354.184 508.111 354.184 490.866 364.861 480.189L478.653 366.397C489.331 355.72 506.58 355.72 517.179 366.397L630.971 480.189C641.648 490.866 641.648 508.116 630.971 518.715L517.187 632.507C506.509 643.111 489.26 643.111 478.661 632.507L443.709 597.637Z" stroke="black" stroke-width="0.746667" stroke-miterlimit="10"/>
<path d="M228.296 596.965V485.339C228.296 470.255 240.468 458.083 255.551 458.083H416.533C431.616 458.083 443.788 470.255 443.788 485.339V646.245C443.788 661.329 431.616 673.501 416.533 673.501H255.551C240.468 673.501 228.296 661.329 228.296 646.245V596.965Z" stroke="black" stroke-width="0.746667" stroke-miterlimit="10"/>
<path d="M76.3493 444.123L155.272 365.2C165.876 354.523 183.121 354.523 193.798 365.2L307.59 478.992C318.267 489.669 318.267 506.919 307.59 517.518L228.301 596.963L193.807 631.385C183.129 642.063 165.88 642.063 155.281 631.385L41.4814 517.593C30.8773 506.916 30.8773 489.666 41.4814 479.067L76.3515 444.125" stroke="black" stroke-width="0.746667" stroke-miterlimit="10"/>
<path d="M77.0214 228.709H188.648C203.731 228.709 215.904 240.882 215.904 255.965V416.946C215.904 432.03 203.731 444.202 188.648 444.202H27.6667C12.5833 444.202 0.411133 432.03 0.411133 416.946V255.965C0.411133 240.882 12.5833 228.709 27.6667 228.709H77.0214Z" stroke="black" stroke-width="0.746667" stroke-miterlimit="10"/>
<path d="M229.864 76.7627L308.787 155.685C319.464 166.289 319.464 183.535 308.787 194.211L194.995 308.003C184.317 318.68 167.068 318.68 156.469 308.003L77.0236 228.715L42.6015 194.22C31.9242 183.543 31.9242 166.293 42.6015 155.694L156.394 41.9023C167.071 31.2981 184.32 31.2981 194.919 41.9023L229.864 76.7627Z" stroke="black" stroke-width="0.746667" stroke-miterlimit="10"/>
</svg>
