<svg width="612" height="177" viewBox="0 0 612 177" fill="none" xmlns="http://www.w3.org/2000/svg">
<path d="M0 5C0 2.23857 2.23858 0 5 0H607C609.761 0 612 2.23858 612 5V171C612 173.761 609.761 176 607 176H5.00001C2.23859 176 0 173.761 0 171V5Z" fill="#00B65E"/>
<path d="M436 35C436 32.2386 438.239 30 441 30H464H487C489.761 30 492 32.2386 492 35V43C492 45.7614 489.761 48 487 48H441C438.239 48 436 45.7614 436 43V35Z" fill="url(#paint0_linear_18_67)"/>
<path d="M421 154C418.239 154 416 151.761 416 149L416 92L416 35C416 32.2386 418.239 30 421 30L429 30C431.761 30 434 32.2386 434 35L434 149C434 151.761 431.761 154 429 154L421 154Z" fill="url(#paint1_linear_18_67)"/>
<path d="M436 88C436 85.2386 438.239 83 441 83H462.951H484.901C487.663 83 489.901 85.2386 489.901 88V95.3611C489.901 98.1225 487.663 100.361 484.901 100.361H441C438.239 100.361 436 98.1225 436 95.3611V88Z" fill="url(#paint2_linear_18_67)"/>
<path d="M436 142C436 139.239 438.239 137 441 137H462.951H484.901C487.663 137 489.901 139.239 489.901 142V149.361C489.901 152.123 487.663 154.361 484.901 154.361H441C438.239 154.361 436 152.123 436 149.361V142Z" fill="url(#paint3_linear_18_67)"/>
<ellipse cx="591.65" cy="19" rx="13.65" ry="14" transform="rotate(-60 591.65 19)" fill="#D9D9D9"/>
<path d="M583.725 12.804C580.377 17.3008 581.308 23.6587 585.805 27.0061C590.3 30.3534 596.659 29.4224 600.006 24.9261C603.353 20.4307 602.421 14.0735 597.926 10.7242C593.43 7.37801 587.071 8.30759 583.725 12.804ZM597.484 15.5251L594.17 18.2361L594.018 19.9553L596.712 23.25L595.203 24.4821L592.526 21.2104L590.733 21.051L587.481 23.7116L586.247 22.2029L589.547 19.5017L589.703 17.7607L587.018 14.4801L588.527 13.2462L591.261 16.5878L592.928 16.7352L596.249 14.0185L597.484 15.5251Z" fill="black"/>
<path d="M583.725 12.804C580.377 17.3008 581.308 23.6587 585.805 27.0061C590.3 30.3534 596.659 29.4224 600.006 24.9261C603.353 20.4307 602.421 14.0735 597.926 10.7242C593.43 7.37801 587.071 8.30759 583.725 12.804ZM597.484 15.5251L594.17 18.2361L594.018 19.9553L596.712 23.25L595.203 24.4821L592.526 21.2104L590.733 21.051L587.481 23.7116L586.247 22.2029L589.547 19.5017L589.703 17.7607L587.018 14.4801L588.527 13.2462L591.261 16.5878L592.928 16.7352L596.249 14.0185L597.484 15.5251Z" fill="white"/>
<path d="M597.484 15.5251L594.17 18.2361L594.018 19.9553L596.712 23.25L595.203 24.4821L592.526 21.2104L590.733 21.051L587.481 23.7116L586.247 22.2029L589.547 19.5017L589.703 17.7607L587.018 14.4801L588.527 13.2462L591.261 16.5878L592.928 16.7352L596.249 14.0185L597.484 15.5251Z" fill="#737373"/>
<ellipse cx="17.65" cy="19" rx="13.65" ry="14" fill="#D9D9D9"/>
<path d="M19.329 9.06965C13.7606 8.41868 8.72004 12.404 8.06972 17.9723C7.41835 23.5388 11.4041 28.5803 16.9713 29.2303C22.5382 29.8817 27.5776 25.8957 28.2305 20.328C28.8807 14.7619 24.8962 9.71964 19.329 9.06965ZM23.8522 22.3465L19.8473 20.8318L18.2823 21.5595L16.7758 25.5396L14.9546 24.8491L16.4493 20.8948L15.6907 19.2621L11.7609 17.7766L12.4506 15.9538L16.4395 17.4605L18.0256 16.7256L19.5242 12.76L21.3469 13.4492L19.8203 17.4884L20.5262 19.0057L24.5394 20.5234L23.8522 22.3465Z" fill="black"/>
<path d="M19.329 9.06965C13.7606 8.41868 8.72004 12.404 8.06972 17.9723C7.41835 23.5388 11.4041 28.5803 16.9713 29.2303C22.5382 29.8817 27.5776 25.8957 28.2305 20.328C28.8807 14.7619 24.8962 9.71964 19.329 9.06965ZM23.8522 22.3465L19.8473 20.8318L18.2823 21.5595L16.7758 25.5396L14.9546 24.8491L16.4493 20.8948L15.6907 19.2621L11.7609 17.7766L12.4506 15.9538L16.4395 17.4605L18.0256 16.7256L19.5242 12.76L21.3469 13.4492L19.8203 17.4884L20.5262 19.0057L24.5394 20.5234L23.8522 22.3465Z" fill="white"/>
<path d="M23.8522 22.3465L19.8473 20.8318L18.2823 21.5595L16.7758 25.5396L14.9546 24.8491L16.4493 20.8948L15.6907 19.2621L11.7609 17.7766L12.4506 15.9538L16.4395 17.4605L18.0256 16.7256L19.5242 12.76L21.3469 13.4492L19.8203 17.4884L20.5262 19.0057L24.5394 20.5234L23.8522 22.3465Z" fill="#737373"/>
<ellipse cx="591.65" cy="158" rx="13.65" ry="14" transform="rotate(30 591.65 158)" fill="#D9D9D9"/>
<path d="M597.926 149.725C593.43 146.377 587.072 147.308 583.724 151.805C580.377 156.3 581.308 162.659 585.804 166.006C590.3 169.353 596.657 168.421 600.006 163.926C603.352 159.43 602.423 153.071 597.926 149.725ZM595.205 163.484L592.494 160.17L590.775 160.018L587.48 162.712L586.248 161.203L589.52 158.526L589.679 156.733L587.019 153.481L588.527 152.247L591.229 155.547L592.97 155.703L596.25 153.018L597.484 154.527L594.143 157.261L593.995 158.928L596.712 162.249L595.205 163.484Z" fill="black"/>
<path d="M597.926 149.725C593.43 146.377 587.072 147.308 583.724 151.805C580.377 156.3 581.308 162.659 585.804 166.006C590.3 169.353 596.657 168.421 600.006 163.926C603.352 159.43 602.423 153.071 597.926 149.725ZM595.205 163.484L592.494 160.17L590.775 160.018L587.48 162.712L586.248 161.203L589.52 158.526L589.679 156.733L587.019 153.481L588.527 152.247L591.229 155.547L592.97 155.703L596.25 153.018L597.484 154.527L594.143 157.261L593.995 158.928L596.712 162.249L595.205 163.484Z" fill="white"/>
<path d="M595.205 163.484L592.494 160.17L590.775 160.018L587.48 162.712L586.248 161.203L589.52 158.526L589.679 156.733L587.019 153.481L588.527 152.247L591.229 155.547L592.97 155.703L596.25 153.018L597.484 154.527L594.143 157.261L593.995 158.928L596.712 162.249L595.205 163.484Z" fill="#737373"/>
<ellipse cx="18" cy="157.65" rx="13.65" ry="14" transform="rotate(-90 18 157.65)" fill="#D9D9D9"/>
<path d="M8.06965 156.971C7.41868 162.539 11.404 167.58 16.9723 168.23C22.5388 168.882 27.5803 164.896 28.2303 159.329C28.8817 153.762 24.8957 148.722 19.328 148.07C13.7619 147.419 8.71964 151.404 8.06965 156.971ZM21.3465 152.448L19.8318 156.453L20.5595 158.018L24.5396 159.524L23.8491 161.345L19.8948 159.851L18.2621 160.609L16.7766 164.539L14.9538 163.849L16.4605 159.86L15.7256 158.274L11.76 156.776L12.4492 154.953L16.4884 156.48L18.0057 155.774L19.5234 151.761L21.3465 152.448Z" fill="black"/>
<path d="M8.06965 156.971C7.41868 162.539 11.404 167.58 16.9723 168.23C22.5388 168.882 27.5803 164.896 28.2303 159.329C28.8817 153.762 24.8957 148.722 19.328 148.07C13.7619 147.419 8.71964 151.404 8.06965 156.971ZM21.3465 152.448L19.8318 156.453L20.5595 158.018L24.5396 159.524L23.8491 161.345L19.8948 159.851L18.2621 160.609L16.7766 164.539L14.9538 163.849L16.4605 159.86L15.7256 158.274L11.76 156.776L12.4492 154.953L16.4884 156.48L18.0057 155.774L19.5234 151.761L21.3465 152.448Z" fill="white"/>
<path d="M21.3465 152.448L19.8318 156.453L20.5595 158.018L24.5396 159.524L23.8491 161.345L19.8948 159.851L18.2621 160.609L16.7766 164.539L14.9538 163.849L16.4605 159.86L15.7256 158.274L11.76 156.776L12.4492 154.953L16.4884 156.48L18.0057 155.774L19.5234 151.761L21.3465 152.448Z" fill="#737373"/>
<circle cx="95" cy="91" r="64" fill="#FFF500"/>
<mask id="mask0_18_67" style="mask-type:alpha" maskUnits="userSpaceOnUse" x="44" y="40" width="102" height="102">
<circle cx="94.9999" cy="91" r="50.1622" fill="url(#paint4_radial_18_67)"/>
</mask>
<g mask="url(#mask0_18_67)">
<circle cx="94.9999" cy="91" r="50.1622" fill="url(#paint5_radial_18_67)"/>
<path d="M94.4235 141.162V36.2252" stroke="#6C6C6C" stroke-width="3"/>
<path d="M42.5316 88.1171H147.469" stroke="#6C6C6C" stroke-width="3"/>
</g>
<circle cx="230.5" cy="91.5" r="64.5" fill="#FF2400"/>
<mask id="mask1_18_67" style="mask-type:alpha" maskUnits="userSpaceOnUse" x="179" y="40" width="103" height="103">
<circle cx="230.5" cy="91.5" r="50.5541" fill="url(#paint6_radial_18_67)"/>
</mask>
<g mask="url(#mask1_18_67)">
<circle cx="230.5" cy="91.5" r="50.5541" fill="url(#paint7_radial_18_67)"/>
<path d="M229.919 142.054V36.2973" stroke="#6C6C6C" stroke-width="3"/>
<path d="M177.622 88.5946H283.378" stroke="#6C6C6C" stroke-width="3"/>
</g>
<rect x="365.308" y="84" width="72" height="24.6153" rx="2" transform="rotate(90 365.308 84)" fill="#161616"/>
<rect x="373" y="103.459" width="1.94595" height="7.69228" transform="rotate(90 373 103.459)" fill="#D9D9D9"/>
<rect x="373" y="100.541" width="1.94595" height="7.69228" transform="rotate(90 373 100.541)" fill="#D9D9D9"/>
<rect x="373" y="109.297" width="1.94595" height="7.69228" transform="rotate(90 373 109.297)" fill="#D9D9D9"/>
<rect x="373" y="106.378" width="1.94595" height="7.69228" transform="rotate(90 373 106.378)" fill="#D9D9D9"/>
<rect x="373" y="115.135" width="1.94595" height="7.69228" transform="rotate(90 373 115.135)" fill="#D9D9D9"/>
<rect x="373" y="112.216" width="1.94595" height="7.69228" transform="rotate(90 373 112.216)" fill="#D9D9D9"/>
<rect x="373" y="120.973" width="1.94595" height="7.69228" transform="rotate(90 373 120.973)" fill="#D9D9D9"/>
<rect x="373" y="118.054" width="1.94595" height="7.69228" transform="rotate(90 373 118.054)" fill="#D9D9D9"/>
<rect x="373" y="97.6216" width="1.94595" height="7.69228" transform="rotate(90 373 97.6216)" fill="#D9D9D9"/>
<rect x="373" y="94.7027" width="1.94595" height="7.69228" transform="rotate(90 373 94.7027)" fill="#D9D9D9"/>
<rect x="373" y="132.649" width="1.94595" height="7.69228" transform="rotate(90 373 132.649)" fill="#D9D9D9"/>
<rect x="373" y="129.73" width="1.94595" height="7.69228" transform="rotate(90 373 129.73)" fill="#D9D9D9"/>
<rect x="373" y="138.487" width="1.94595" height="7.69228" transform="rotate(90 373 138.487)" fill="#D9D9D9"/>
<rect x="373" y="135.568" width="1.94595" height="7.69228" transform="rotate(90 373 135.568)" fill="#D9D9D9"/>
<rect x="373" y="144.324" width="1.94595" height="7.69228" transform="rotate(90 373 144.324)" fill="#D9D9D9"/>
<rect x="373" y="141.405" width="1.94595" height="7.69228" transform="rotate(90 373 141.405)" fill="#D9D9D9"/>
<rect x="373" y="150.162" width="1.94595" height="7.69228" transform="rotate(90 373 150.162)" fill="#D9D9D9"/>
<rect x="373" y="147.243" width="1.94595" height="7.69228" transform="rotate(90 373 147.243)" fill="#D9D9D9"/>
<rect x="373" y="126.811" width="1.94595" height="7.69228" transform="rotate(90 373 126.811)" fill="#D9D9D9"/>
<rect x="373" y="123.892" width="1.94595" height="7.69228" transform="rotate(90 373 123.892)" fill="#D9D9D9"/>
<rect x="373" y="150.162" width="1.94595" height="7.69228" transform="rotate(90 373 150.162)" fill="#D9D9D9"/>
<rect x="373" y="147.243" width="1.94595" height="7.69228" transform="rotate(90 373 147.243)" fill="#D9D9D9"/>
<rect x="373" y="91.7838" width="1.94595" height="7.69228" transform="rotate(90 373 91.7838)" fill="#D9D9D9"/>
<rect x="340.692" y="103.459" width="1.94595" height="7.69228" transform="rotate(90 340.692 103.459)" fill="#D9D9D9"/>
<rect x="340.692" y="100.541" width="1.94595" height="7.69228" transform="rotate(90 340.692 100.541)" fill="#D9D9D9"/>
<rect x="340.692" y="109.297" width="1.94595" height="7.69228" transform="rotate(90 340.692 109.297)" fill="#D9D9D9"/>
<rect x="340.692" y="106.378" width="1.94595" height="7.69228" transform="rotate(90 340.692 106.378)" fill="#D9D9D9"/>
<rect x="340.692" y="115.135" width="1.94595" height="7.69228" transform="rotate(90 340.692 115.135)" fill="#D9D9D9"/>
<rect x="340.692" y="112.216" width="1.94595" height="7.69228" transform="rotate(90 340.692 112.216)" fill="#D9D9D9"/>
<rect x="340.692" y="120.973" width="1.94595" height="7.69228" transform="rotate(90 340.692 120.973)" fill="#D9D9D9"/>
<rect x="340.692" y="118.054" width="1.94595" height="7.69228" transform="rotate(90 340.692 118.054)" fill="#D9D9D9"/>
<rect x="340.692" y="97.6216" width="1.94595" height="7.69228" transform="rotate(90 340.692 97.6216)" fill="#D9D9D9"/>
<rect x="340.692" y="94.7027" width="1.94595" height="7.69228" transform="rotate(90 340.692 94.7027)" fill="#D9D9D9"/>
<rect x="340.692" y="132.649" width="1.94595" height="7.69228" transform="rotate(90 340.692 132.649)" fill="#D9D9D9"/>
<rect x="340.692" y="129.73" width="1.94595" height="7.69228" transform="rotate(90 340.692 129.73)" fill="#D9D9D9"/>
<rect x="340.692" y="138.487" width="1.94595" height="7.69228" transform="rotate(90 340.692 138.487)" fill="#D9D9D9"/>
<rect x="340.692" y="135.568" width="1.94595" height="7.69228" transform="rotate(90 340.692 135.568)" fill="#D9D9D9"/>
<rect x="340.692" y="144.324" width="1.94595" height="7.69228" transform="rotate(90 340.692 144.324)" fill="#D9D9D9"/>
<rect x="340.692" y="141.405" width="1.94595" height="7.69228" transform="rotate(90 340.692 141.405)" fill="#D9D9D9"/>
<rect x="340.692" y="150.162" width="1.94595" height="7.69228" transform="rotate(90 340.692 150.162)" fill="#D9D9D9"/>
<rect x="340.692" y="147.243" width="1.94595" height="7.69228" transform="rotate(90 340.692 147.243)" fill="#D9D9D9"/>
<rect x="340.692" y="126.811" width="1.94595" height="7.69228" transform="rotate(90 340.692 126.811)" fill="#D9D9D9"/>
<rect x="340.692" y="123.892" width="1.94595" height="7.69228" transform="rotate(90 340.692 123.892)" fill="#D9D9D9"/>
<rect x="340.692" y="150.162" width="1.94595" height="7.69228" transform="rotate(90 340.692 150.162)" fill="#D9D9D9"/>
<rect x="340.692" y="147.243" width="1.94595" height="7.69228" transform="rotate(90 340.692 147.243)" fill="#D9D9D9"/>
<rect x="340.692" y="91.7838" width="1.94595" height="7.69228" transform="rotate(90 340.692 91.7838)" fill="#D9D9D9"/>
<rect x="304" y="40.2308" width="100" height="29.5385" rx="2" fill="#161616"/>
<path d="M353.738 43.9231H352.565V45.0592H353.738V43.9231Z" fill="white"/>
<path d="M354.912 45.0592H353.739V47.3314H354.912V45.0592Z" fill="white"/>
<path d="M352.565 45.0592H351.391V47.3314H352.565V45.0592Z" fill="white"/>
<path d="M356.086 47.3314H354.912V49.6037H356.086V47.3314Z" fill="white"/>
<path d="M351.391 47.3314H350.217V49.6037H351.391V47.3314Z" fill="white"/>
<path d="M350.217 49.6038H349.043V51.876H350.217V49.6038Z" fill="white"/>
<path d="M357.259 49.6038H356.085V51.876H357.259V49.6038Z" fill="white"/>
<path d="M349.044 51.8756H344.349V53.0117H349.044V51.8756Z" fill="white"/>
<path d="M361.954 51.8756H357.26V53.0117H361.954V51.8756Z" fill="white"/>
<path d="M363.128 53.0118H361.954V54.1479H363.128V53.0118Z" fill="white"/>
<path d="M361.954 54.1479H360.781V55.2841H361.954V54.1479Z" fill="white"/>
<path d="M360.78 55.2841H359.607V56.4203H360.78V55.2841Z" fill="white"/>
<path d="M359.607 56.4203H358.433V57.5564H359.607V56.4203Z" fill="white"/>
<path d="M358.433 57.5565H357.259V58.6926H358.433V57.5565Z" fill="white"/>
<path d="M359.607 58.6921H358.433V62.1005H359.607V58.6921Z" fill="white"/>
<path d="M360.78 62.1007H359.607V64.3729H360.78V62.1007Z" fill="white"/>
<path d="M359.607 64.373H357.259V65.5091H359.607V64.373Z" fill="white"/>
<path d="M357.259 63.2368H356.085V64.373H357.259V63.2368Z" fill="white"/>
<path d="M356.086 62.1007H354.912V63.2368H356.086V62.1007Z" fill="white"/>
<path d="M354.912 60.9645H353.739V62.1006H354.912V60.9645Z" fill="white"/>
<path d="M353.738 59.8283H352.565V60.9644H353.738V59.8283Z" fill="white"/>
<path d="M352.565 60.9645H351.391V62.1006H352.565V60.9645Z" fill="white"/>
<path d="M351.391 62.1007H350.217V63.2368H351.391V62.1007Z" fill="white"/>
<path d="M350.217 63.2368H349.043V64.373H350.217V63.2368Z" fill="white"/>
<path d="M349.044 64.373H346.697V65.5091H349.044V64.373Z" fill="white"/>
<path d="M346.696 62.1007H345.523V64.3729H346.696V62.1007Z" fill="white"/>
<path d="M347.87 58.6921H346.697V62.1005H347.87V58.6921Z" fill="white"/>
<path d="M349.044 57.5565H347.87V58.6926H349.044V57.5565Z" fill="white"/>
<path d="M347.87 56.4203H346.697V57.5564H347.87V56.4203Z" fill="white"/>
<path d="M346.696 55.2841H345.523V56.4203H346.696V55.2841Z" fill="white"/>
<path d="M345.523 54.1479H344.349V55.2841H345.523V54.1479Z" fill="white"/>
<path d="M344.349 53.0118H343.175V54.1479H344.349V53.0118Z" fill="white"/>
<rect x="322.557" y="31" width="2.06186" height="9.23077" fill="#D9D9D9"/>
<rect x="319.464" y="31" width="2.06186" height="9.23077" fill="#D9D9D9"/>
<rect x="328.742" y="31" width="2.06186" height="9.23077" fill="#D9D9D9"/>
<rect x="325.649" y="31" width="2.06186" height="9.23077" fill="#D9D9D9"/>
<rect x="334.928" y="31" width="2.06186" height="9.23077" fill="#D9D9D9"/>
<rect x="331.835" y="31" width="2.06186" height="9.23077" fill="#D9D9D9"/>
<rect x="341.113" y="31" width="2.06186" height="9.23077" fill="#D9D9D9"/>
<rect x="338.021" y="31" width="2.06186" height="9.23077" fill="#D9D9D9"/>
<rect x="316.371" y="31" width="2.06186" height="9.23077" fill="#D9D9D9"/>
<rect x="313.278" y="31" width="2.06186" height="9.23077" fill="#D9D9D9"/>
<rect x="353.485" y="31" width="2.06186" height="9.23077" fill="#D9D9D9"/>
<rect x="350.392" y="31" width="2.06186" height="9.23077" fill="#D9D9D9"/>
<rect x="359.67" y="31" width="2.06186" height="9.23077" fill="#D9D9D9"/>
<rect x="356.577" y="31" width="2.06186" height="9.23077" fill="#D9D9D9"/>
<rect x="365.856" y="31" width="2.06186" height="9.23077" fill="#D9D9D9"/>
<rect x="362.763" y="31" width="2.06186" height="9.23077" fill="#D9D9D9"/>
<rect x="372.041" y="31" width="2.06186" height="9.23077" fill="#D9D9D9"/>
<rect x="368.948" y="31" width="2.06186" height="9.23077" fill="#D9D9D9"/>
<rect x="347.299" y="31" width="2.06186" height="9.23077" fill="#D9D9D9"/>
<rect x="344.206" y="31" width="2.06186" height="9.23077" fill="#D9D9D9"/>
<rect x="378.227" y="31" width="2.06186" height="9.23077" fill="#D9D9D9"/>
<rect x="375.134" y="31" width="2.06186" height="9.23077" fill="#D9D9D9"/>
<rect x="384.412" y="31" width="2.06186" height="9.23077" fill="#D9D9D9"/>
<rect x="381.32" y="31" width="2.06186" height="9.23077" fill="#D9D9D9"/>
<rect x="390.598" y="31" width="2.06186" height="9.23077" fill="#D9D9D9"/>
<rect x="387.505" y="31" width="2.06186" height="9.23077" fill="#D9D9D9"/>
<rect x="393.691" y="31" width="2.06186" height="9.23077" fill="#D9D9D9"/>
<rect x="393.691" y="31" width="2.06186" height="9.23077" fill="#D9D9D9"/>
<rect x="393.691" y="31" width="2.06186" height="9.23077" fill="#D9D9D9"/>
<rect x="372.041" y="31" width="2.06186" height="9.23077" fill="#D9D9D9"/>
<rect x="368.948" y="31" width="2.06186" height="9.23077" fill="#D9D9D9"/>
<rect x="310.186" y="31" width="2.06186" height="9.23077" fill="#D9D9D9"/>
<rect x="396.784" y="31" width="2.06186" height="9.23077" fill="#D9D9D9"/>
<rect x="322.557" y="69.7692" width="2.06186" height="9.23077" fill="#D9D9D9"/>
<rect x="319.464" y="69.7692" width="2.06186" height="9.23077" fill="#D9D9D9"/>
<rect x="328.742" y="69.7692" width="2.06186" height="9.23077" fill="#D9D9D9"/>
<rect x="325.649" y="69.7692" width="2.06186" height="9.23077" fill="#D9D9D9"/>
<rect x="334.928" y="69.7692" width="2.06186" height="9.23077" fill="#D9D9D9"/>
<rect x="331.835" y="69.7692" width="2.06186" height="9.23077" fill="#D9D9D9"/>
<rect x="341.113" y="69.7692" width="2.06186" height="9.23077" fill="#D9D9D9"/>
<rect x="338.021" y="69.7692" width="2.06186" height="9.23077" fill="#D9D9D9"/>
<rect x="316.371" y="69.7692" width="2.06186" height="9.23077" fill="#D9D9D9"/>
<rect x="313.278" y="69.7692" width="2.06186" height="9.23077" fill="#D9D9D9"/>
<rect x="353.485" y="69.7692" width="2.06186" height="9.23077" fill="#D9D9D9"/>
<rect x="350.392" y="69.7692" width="2.06186" height="9.23077" fill="#D9D9D9"/>
<rect x="359.67" y="69.7692" width="2.06186" height="9.23077" fill="#D9D9D9"/>
<rect x="356.577" y="69.7692" width="2.06186" height="9.23077" fill="#D9D9D9"/>
<rect x="365.856" y="69.7692" width="2.06186" height="9.23077" fill="#D9D9D9"/>
<rect x="362.763" y="69.7692" width="2.06186" height="9.23077" fill="#D9D9D9"/>
<rect x="372.041" y="69.7692" width="2.06186" height="9.23077" fill="#D9D9D9"/>
<rect x="368.948" y="69.7692" width="2.06186" height="9.23077" fill="#D9D9D9"/>
<rect x="347.299" y="69.7692" width="2.06186" height="9.23077" fill="#D9D9D9"/>
<rect x="344.206" y="69.7692" width="2.06186" height="9.23077" fill="#D9D9D9"/>
<rect x="378.227" y="69.7692" width="2.06186" height="9.23077" fill="#D9D9D9"/>
<rect x="375.134" y="69.7692" width="2.06186" height="9.23077" fill="#D9D9D9"/>
<rect x="384.412" y="69.7692" width="2.06186" height="9.23077" fill="#D9D9D9"/>
<rect x="381.32" y="69.7692" width="2.06186" height="9.23077" fill="#D9D9D9"/>
<rect x="390.598" y="69.7692" width="2.06186" height="9.23077" fill="#D9D9D9"/>
<rect x="387.505" y="69.7692" width="2.06186" height="9.23077" fill="#D9D9D9"/>
<rect x="393.691" y="69.7692" width="2.06186" height="9.23077" fill="#D9D9D9"/>
<rect x="393.691" y="69.7692" width="2.06186" height="9.23077" fill="#D9D9D9"/>
<rect x="393.691" y="69.7692" width="2.06186" height="9.23077" fill="#D9D9D9"/>
<rect x="372.041" y="69.7692" width="2.06186" height="9.23077" fill="#D9D9D9"/>
<rect x="368.948" y="69.7692" width="2.06186" height="9.23077" fill="#D9D9D9"/>
<rect x="310.186" y="69.7692" width="2.06186" height="9.23077" fill="#D9D9D9"/>
<rect x="396.784" y="69.7692" width="2.06186" height="9.23077" fill="#D9D9D9"/>
<path d="M569.244 51.3349L551.902 34.2869C551.715 34.103 551.463 34 551.201 34H527.333C527.07 34 526.819 34.103 526.632 34.2869L509.589 51.041C509.398 51.229 509.29 51.486 509.29 51.7542V74.5849C509.29 74.8659 509.408 75.134 509.616 75.3234L525.462 89.7882C525.646 89.9564 525.886 90.0496 526.136 90.0496H548.806C549.094 90.0496 549.368 90.1739 549.558 90.3907L567.233 110.569C567.392 110.751 567.48 110.985 567.48 111.228V130.675C567.48 130.932 567.381 131.179 567.203 131.366L549.555 149.835C549.366 150.032 549.105 150.144 548.832 150.144H526.206C525.915 150.144 525.639 150.018 525.449 149.797L509.533 131.357C509.376 131.176 509.29 130.944 509.29 130.704V112.585" stroke="#005136" stroke-width="9"/>
<ellipse cx="568.068" cy="50.1793" rx="5.29003" ry="5.20048" fill="url(#paint8_radial_18_67)"/>
<ellipse cx="509.29" cy="113.741" rx="5.29003" ry="5.20048" fill="url(#paint9_radial_18_67)"/>
<path d="M512.188 113.867C512.188 115.698 510.679 117.182 508.817 117.182C506.954 117.182 505.445 115.698 505.445 113.867C505.445 112.037 506.954 110.553 508.817 110.553C510.679 110.553 512.188 112.037 512.188 113.867Z" fill="#CDAD00"/>
<path d="M571.913 50.2363C571.913 52.0669 570.404 53.5508 568.542 53.5508C566.68 53.5508 565.17 52.0669 565.17 50.2363C565.17 48.4057 566.68 46.9218 568.542 46.9218C570.404 46.9218 571.913 48.4057 571.913 50.2363Z" fill="#CDAD00"/>
<defs>
<linearGradient id="paint0_linear_18_67" x1="464" y1="30" x2="464" y2="48" gradientUnits="userSpaceOnUse">
<stop stop-color="#901400"/>
<stop offset="0.5" stop-color="#FF2400"/>
<stop offset="1" stop-color="#901400"/>
</linearGradient>
<linearGradient id="paint1_linear_18_67" x1="416" y1="92" x2="434" y2="92" gradientUnits="userSpaceOnUse">
<stop stop-color="#0014C8"/>
<stop offset="0.5" stop-color="#52D6FF"/>
<stop offset="1" stop-color="#0014C8"/>
</linearGradient>
<linearGradient id="paint2_linear_18_67" x1="464.049" y1="80.6018" x2="464.049" y2="97.9629" gradientUnits="userSpaceOnUse">
<stop stop-color="#901400"/>
<stop offset="0.5" stop-color="#FF2400"/>
<stop offset="1" stop-color="#901400"/>
</linearGradient>
<linearGradient id="paint3_linear_18_67" x1="465" y1="138.139" x2="465" y2="155.5" gradientUnits="userSpaceOnUse">
<stop stop-color="#901400"/>
<stop offset="0.5" stop-color="#FF2400"/>
<stop offset="1" stop-color="#901400"/>
</linearGradient>
<radialGradient id="paint4_radial_18_67" cx="0" cy="0" r="1" gradientUnits="userSpaceOnUse" gradientTransform="translate(94.9999 91) rotate(90) scale(50.1622)">
<stop stop-color="white"/>
<stop offset="1" stop-color="#C8C8C8"/>
</radialGradient>
<radialGradient id="paint5_radial_18_67" cx="0" cy="0" r="1" gradientUnits="userSpaceOnUse" gradientTransform="translate(94.9999 91) rotate(90) scale(50.1622)">
<stop stop-color="white"/>
<stop offset="1" stop-color="#C8C8C8"/>
</radialGradient>
<radialGradient id="paint6_radial_18_67" cx="0" cy="0" r="1" gradientUnits="userSpaceOnUse" gradientTransform="translate(230.5 91.5) rotate(90) scale(50.5541)">
<stop stop-color="white"/>
<stop offset="1" stop-color="#C8C8C8"/>
</radialGradient>
<radialGradient id="paint7_radial_18_67" cx="0" cy="0" r="1" gradientUnits="userSpaceOnUse" gradientTransform="translate(230.5 91.5) rotate(90) scale(50.5541)">
<stop stop-color="white"/>
<stop offset="1" stop-color="#C8C8C8"/>
</radialGradient>
<radialGradient id="paint8_radial_18_67" cx="0" cy="0" r="1" gradientUnits="userSpaceOnUse" gradientTransform="translate(568.068 50.1793) rotate(90) scale(5.20048 5.29003)">
<stop stop-color="#FFD700"/>
<stop offset="1" stop-color="#FFD700"/>
</radialGradient>
<radialGradient id="paint9_radial_18_67" cx="0" cy="0" r="1" gradientUnits="userSpaceOnUse" gradientTransform="translate(509.29 113.741) rotate(90) scale(5.20048 5.29003)">
<stop stop-color="#FFD700"/>
<stop offset="1" stop-color="#FFD700"/>
</radialGradient>
</defs>
</svg>
