<svg width="654" height="514" viewBox="0 0 654 514" fill="none" xmlns="http://www.w3.org/2000/svg">
<path d="M630 94H606.667V24C606.667 17.8125 604.208 11.8749 599.833 7.49999C595.458 3.12506 589.521 0.666656 583.333 0.666656H490C483.813 0.666656 477.875 3.12506 473.5 7.49999C469.125 11.8749 466.667 17.8125 466.667 24V94H186.667V24C186.667 17.8125 184.208 11.8749 179.833 7.49999C175.458 3.12506 169.521 0.666656 163.333 0.666656H70C63.8125 0.666656 57.8749 3.12506 53.5 7.49999C49.1251 11.8749 46.6667 17.8125 46.6667 24V94H23.3333C17.1459 94 11.2083 96.4584 6.83333 100.833C2.4584 105.208 0 111.146 0 117.333V304C0 310.187 2.4584 316.125 6.83333 320.5C11.2083 324.875 17.1459 327.333 23.3333 327.333H93.3333V467.333H70C61.6615 467.333 53.9587 471.781 49.792 479C45.6253 486.219 45.6253 495.115 49.792 502.333C53.9587 509.552 61.6617 514 70 514H163.333C171.672 514 179.375 509.552 183.541 502.333C187.708 495.115 187.708 486.219 183.541 479C179.375 471.781 171.672 467.333 163.333 467.333H140V327.333H513.333V467.333H490C481.661 467.333 473.959 471.781 469.792 479C465.625 486.219 465.625 495.115 469.792 502.333C473.959 509.552 481.662 514 490 514H583.333C591.672 514 599.375 509.552 603.541 502.333C607.708 495.115 607.708 486.219 603.541 479C599.375 471.781 591.672 467.333 583.333 467.333H560V327.333H630C636.187 327.333 642.125 324.875 646.5 320.5C650.875 316.125 653.333 310.187 653.333 304V117.333C653.333 111.146 650.875 105.208 646.5 100.833C642.125 96.4584 636.187 94 630 94ZM406.24 280.667L546.24 140.667H597.104L457.104 280.667H406.24ZM289.573 280.667L429.573 140.667H480.437L340.437 280.667H289.573ZM172.907 280.667L312.907 140.667H363.771L223.771 280.667H172.907ZM70.0053 140.667H130.437L46.672 224.432V140.667H70.0053ZM196.24 140.667H247.104L107.104 280.667H56.24L196.24 140.667ZM513.333 47.3333H560V94H513.333V47.3333ZM93.3333 47.3333H140V94H93.3333V47.3333ZM522.907 280.667L606.672 196.901V280.667H522.907Z" fill="black"/>
</svg>
