<?xml version="1.0" encoding="UTF-8"?>
<svg width="700pt" height="700pt" version="1.1" viewBox="0 0 700 700" xmlns="http://www.w3.org/2000/svg" xmlns:xlink="http://www.w3.org/1999/xlink">
 <defs>
  <symbol id="v" overflow="visible">
   <path d="m1.875-0.10938c-0.09375 0.054688-0.19531 0.089844-0.29688 0.10938-0.10547 0.03125-0.21484 0.046875-0.32812 0.046875-0.34375 0-0.61719-0.09375-0.8125-0.28125-0.19922-0.19531-0.29688-0.45703-0.29688-0.78125 0-0.32031 0.097656-0.57812 0.29688-0.76562 0.19531-0.19531 0.46875-0.29688 0.8125-0.29688 0.11328 0 0.22266 0.015625 0.32812 0.046875 0.10156 0.023438 0.20312 0.058594 0.29688 0.10938v0.42188c-0.09375-0.070312-0.19531-0.11719-0.29688-0.14062-0.09375-0.03125-0.19531-0.046875-0.29688-0.046875-0.1875 0-0.33594 0.0625-0.4375 0.1875-0.10547 0.11719-0.15625 0.27734-0.15625 0.48438 0 0.21094 0.050781 0.375 0.15625 0.5 0.10156 0.11719 0.25 0.17188 0.4375 0.17188 0.10156 0 0.20312-0.015625 0.29688-0.046875 0.10156-0.03125 0.20312-0.078125 0.29688-0.14062z"/>
  </symbol>
  <symbol id="c" overflow="visible">
   <path d="m1.375-1.1094c-0.042969-0.019531-0.085938-0.035156-0.125-0.046875-0.042969-0.007812-0.089844-0.015625-0.14062-0.015625-0.125 0-0.22656 0.042969-0.29688 0.125-0.0625 0.074219-0.09375 0.1875-0.09375 0.34375v0.70312h-0.48438v-1.5312h0.48438v0.25c0.0625-0.09375 0.13281-0.16016 0.21875-0.20312 0.082031-0.050781 0.17969-0.078125 0.29688-0.078125h0.046875 0.09375z"/>
  </symbol>
  <symbol id="b" overflow="visible">
   <path d="m1.7656-0.76562v0.14062h-1.1406c0.007812 0.11719 0.046875 0.20312 0.10938 0.26562 0.070313 0.054687 0.17578 0.078125 0.3125 0.078125 0.09375 0 0.19141-0.015625 0.29688-0.046875 0.11328-0.03125 0.22656-0.078125 0.34375-0.14062v0.375c-0.11719 0.042969-0.23047 0.074219-0.34375 0.09375-0.11719 0.03125-0.23047 0.046875-0.34375 0.046875-0.28125 0-0.5-0.066406-0.65625-0.20312-0.14844-0.14453-0.21875-0.34766-0.21875-0.60938 0-0.25 0.070312-0.44141 0.21875-0.57812 0.15625-0.14453 0.36328-0.21875 0.625-0.21875 0.23828 0 0.42969 0.074219 0.57812 0.21875 0.14453 0.14844 0.21875 0.33984 0.21875 0.57812zm-0.5-0.17188c0-0.09375-0.03125-0.16406-0.09375-0.21875-0.054687-0.050781-0.12109-0.078125-0.20312-0.078125-0.09375 0-0.17188 0.027344-0.23438 0.078125-0.0625 0.054688-0.10156 0.125-0.10938 0.21875z"/>
  </symbol>
  <symbol id="j" overflow="visible">
   <path d="m0.92188-0.6875c-0.10547 0-0.18359 0.023438-0.23438 0.0625-0.054688 0.03125-0.078125 0.078125-0.078125 0.14062s0.019531 0.11719 0.0625 0.15625c0.039063 0.03125 0.097656 0.046875 0.17188 0.046875 0.09375 0 0.17188-0.03125 0.23438-0.09375 0.0625-0.070312 0.09375-0.15625 0.09375-0.25v-0.0625zm0.75-0.1875v0.875h-0.5v-0.23438c-0.0625 0.09375-0.13672 0.16797-0.21875 0.21875-0.085937 0.039062-0.18359 0.0625-0.29688 0.0625-0.15625 0-0.28906-0.046875-0.39062-0.14062-0.09375-0.09375-0.14062-0.21094-0.14062-0.35938 0-0.1875 0.054688-0.32031 0.17188-0.40625 0.125-0.082031 0.32031-0.125 0.59375-0.125h0.28125v-0.03125c0-0.082031-0.03125-0.14062-0.09375-0.17188s-0.15625-0.046875-0.28125-0.046875c-0.10547 0-0.20312 0.011719-0.29688 0.03125-0.085938 0.023437-0.16797 0.054687-0.25 0.09375v-0.375c0.10156-0.03125 0.20703-0.050781 0.3125-0.0625 0.11328-0.007813 0.22266-0.015625 0.32812-0.015625 0.26953 0 0.46875 0.058594 0.59375 0.17188 0.125 0.10547 0.1875 0.27734 0.1875 0.51562z"/>
  </symbol>
  <symbol id="a" overflow="visible">
   <path d="m0.76562-1.9688v0.4375h0.5v0.34375h-0.5v0.65625c0 0.074219 0.015625 0.125 0.046875 0.15625 0.03125 0.023438 0.085938 0.03125 0.17188 0.03125h0.25v0.34375h-0.42188c-0.19922 0-0.33984-0.035156-0.42188-0.10938-0.074219-0.082031-0.10938-0.22266-0.10938-0.42188v-0.65625h-0.25v-0.34375h0.25v-0.4375z"/>
  </symbol>
  <symbol id="i" overflow="visible">
   <path d="m1.2812-1.3125v-0.8125h0.48438v2.125h-0.48438v-0.21875c-0.074219 0.085938-0.15234 0.15234-0.23438 0.20312-0.074219 0.039062-0.16797 0.0625-0.28125 0.0625-0.1875 0-0.34375-0.070312-0.46875-0.21875-0.11719-0.15625-0.17188-0.35156-0.17188-0.59375 0-0.22656 0.054688-0.41406 0.17188-0.5625 0.125-0.15625 0.28125-0.23438 0.46875-0.23438 0.11328 0 0.20703 0.023438 0.28125 0.0625 0.082031 0.042969 0.16016 0.10547 0.23438 0.1875zm-0.32812 1c0.10156 0 0.17969-0.035156 0.23438-0.10938 0.0625-0.082031 0.09375-0.19531 0.09375-0.34375 0-0.14453-0.03125-0.25391-0.09375-0.32812-0.054688-0.082031-0.13281-0.125-0.23438-0.125-0.10547 0-0.1875 0.042969-0.25 0.125-0.054687 0.074219-0.078125 0.18359-0.078125 0.32812 0 0.14844 0.023438 0.26172 0.078125 0.34375 0.0625 0.074219 0.14453 0.10938 0.25 0.10938z"/>
  </symbol>
  <symbol id="h" overflow="visible">
   <path d="m1.0469-0.3125c0.10156 0 0.17969-0.035156 0.23438-0.10938 0.0625-0.082031 0.09375-0.19531 0.09375-0.34375 0-0.14453-0.03125-0.25391-0.09375-0.32812-0.054688-0.082031-0.13281-0.125-0.23438-0.125-0.10547 0-0.1875 0.042969-0.25 0.125-0.054687 0.074219-0.078125 0.18359-0.078125 0.32812 0 0.14844 0.023438 0.26172 0.078125 0.34375 0.0625 0.074219 0.14453 0.10938 0.25 0.10938zm-0.32812-1c0.070312-0.082031 0.14844-0.14453 0.23438-0.1875 0.082031-0.039062 0.17578-0.0625 0.28125-0.0625 0.1875 0 0.33594 0.078125 0.45312 0.23438 0.125 0.14844 0.1875 0.33594 0.1875 0.5625 0 0.24219-0.0625 0.4375-0.1875 0.59375-0.11719 0.14844-0.26562 0.21875-0.45312 0.21875-0.10547 0-0.19922-0.023438-0.28125-0.0625-0.085937-0.050781-0.16406-0.11719-0.23438-0.20312v0.21875h-0.48438v-2.125h0.48438z"/>
  </symbol>
  <symbol id="g" overflow="visible">
   <path d="m0.03125-1.5312h0.48438l0.42188 1.0469 0.34375-1.0469h0.48438l-0.64062 1.6719c-0.0625 0.17578-0.13672 0.29688-0.21875 0.35938-0.085938 0.070312-0.19922 0.10938-0.34375 0.10938h-0.28125v-0.32812h0.15625c0.082031 0 0.14062-0.015625 0.17188-0.046875 0.039063-0.023437 0.070313-0.070313 0.09375-0.14062l0.015625-0.03125z"/>
  </symbol>
  <symbol id="e" overflow="visible">
   <path d="m1.7656-0.9375v0.9375h-0.48438v-0.71875c0-0.125-0.007812-0.21094-0.015625-0.26562 0-0.050781-0.011719-0.085937-0.03125-0.10938-0.011719-0.03125-0.039063-0.054688-0.078125-0.078125-0.03125-0.019531-0.070312-0.03125-0.10938-0.03125-0.09375 0-0.17188 0.042969-0.23438 0.125-0.0625 0.074219-0.09375 0.18359-0.09375 0.32812v0.75h-0.48438v-1.5312h0.48438v0.21875c0.070312-0.082031 0.14844-0.14453 0.23438-0.1875 0.082031-0.039062 0.17578-0.0625 0.28125-0.0625 0.17578 0 0.30469 0.058594 0.39062 0.17188 0.09375 0.10547 0.14062 0.25781 0.14062 0.45312z"/>
  </symbol>
  <symbol id="u" overflow="visible">
   <path d="m0.23438-1.5312h0.48438v1.5312h-0.48438zm0-0.59375h0.48438v0.40625h-0.48438z"/>
  </symbol>
  <symbol id="f" overflow="visible">
   <path d="m0.21875-0.59375v-0.9375h0.48438v0.15625 0.3125 0.25 0.26562c0.007813 0.054687 0.023437 0.089844 0.046875 0.10938 0.019531 0.042969 0.046875 0.074219 0.078125 0.09375 0.03125 0.011719 0.066406 0.015625 0.10938 0.015625 0.10156 0 0.17969-0.035156 0.23438-0.10938 0.0625-0.082031 0.09375-0.19531 0.09375-0.34375v-0.75h0.48438v1.5312h-0.48438v-0.21875c-0.074219 0.085938-0.15234 0.15234-0.23438 0.20312-0.085938 0.039062-0.17188 0.0625-0.26562 0.0625-0.17969 0-0.3125-0.050781-0.40625-0.15625-0.09375-0.11328-0.14062-0.27344-0.14062-0.48438z"/>
  </symbol>
  <symbol id="t" overflow="visible">
   <path d="m0.1875-2.0312h1.5312v0.28125l-0.79688 1.75h-0.5l0.75-1.6562h-0.98438z"/>
  </symbol>
  <symbol id="s" overflow="visible">
   <path d="m0.96875-0.90625c-0.09375 0-0.16797 0.027344-0.21875 0.078125-0.054688 0.054687-0.078125 0.13281-0.078125 0.23438 0 0.09375 0.023437 0.16797 0.078125 0.21875 0.050781 0.054688 0.125 0.078125 0.21875 0.078125 0.10156 0 0.17969-0.023437 0.23438-0.078125 0.050781-0.050781 0.078125-0.125 0.078125-0.21875 0-0.10156-0.027344-0.17969-0.078125-0.23438-0.054687-0.050781-0.13281-0.078125-0.23438-0.078125zm-0.375-0.17188c-0.125-0.039063-0.21875-0.097656-0.28125-0.17188-0.0625-0.082031-0.09375-0.17969-0.09375-0.29688 0-0.17578 0.0625-0.30469 0.1875-0.39062 0.125-0.09375 0.3125-0.14062 0.5625-0.14062s0.4375 0.046875 0.5625 0.14062c0.13281 0.085938 0.20312 0.21484 0.20312 0.39062 0 0.11719-0.03125 0.21484-0.09375 0.29688-0.0625 0.074219-0.15625 0.13281-0.28125 0.17188 0.13281 0.03125 0.23438 0.09375 0.29688 0.1875 0.070312 0.085937 0.10938 0.1875 0.10938 0.3125 0 0.21094-0.070313 0.36719-0.20312 0.46875-0.125 0.10547-0.32422 0.15625-0.59375 0.15625-0.26172 0-0.46094-0.050781-0.59375-0.15625-0.13672-0.10156-0.20312-0.25781-0.20312-0.46875 0-0.125 0.03125-0.22656 0.09375-0.3125 0.070313-0.09375 0.17969-0.15625 0.32812-0.1875zm0.125-0.42188c0 0.085938 0.019531 0.15234 0.0625 0.20312 0.039062 0.042969 0.10156 0.0625 0.1875 0.0625 0.082031 0 0.14453-0.019531 0.1875-0.0625 0.050781-0.050781 0.078125-0.11719 0.078125-0.20312 0-0.070312-0.027344-0.12891-0.078125-0.17188-0.042969-0.050781-0.10547-0.078125-0.1875-0.078125-0.085938 0-0.14844 0.027344-0.1875 0.078125-0.042969 0.042969-0.0625 0.10156-0.0625 0.17188z"/>
  </symbol>
  <symbol id="r" overflow="visible">
   <path d="m1.0156-1c-0.09375 0-0.16797 0.03125-0.21875 0.09375-0.042969 0.054688-0.0625 0.13672-0.0625 0.25 0 0.125 0.019531 0.21875 0.0625 0.28125 0.050781 0.054688 0.125 0.078125 0.21875 0.078125s0.16016-0.023437 0.20312-0.078125c0.050781-0.0625 0.078125-0.15625 0.078125-0.28125 0-0.11328-0.027344-0.19531-0.078125-0.25-0.042969-0.0625-0.10938-0.09375-0.20312-0.09375zm0.64062-0.98438v0.375c-0.085938-0.039063-0.16797-0.070313-0.25-0.09375-0.074219-0.019531-0.14844-0.03125-0.21875-0.03125-0.15625 0-0.27734 0.046875-0.35938 0.14062-0.085937 0.085938-0.13672 0.21094-0.15625 0.375 0.0625-0.039062 0.125-0.070312 0.1875-0.09375 0.070313-0.019531 0.14844-0.03125 0.23438-0.03125 0.20703 0 0.375 0.0625 0.5 0.1875 0.13281 0.11719 0.20312 0.27344 0.20312 0.46875 0 0.21875-0.074219 0.39844-0.21875 0.53125-0.14844 0.13672-0.33984 0.20312-0.57812 0.20312-0.26172 0-0.46484-0.085938-0.60938-0.26562-0.14844-0.1875-0.21875-0.44141-0.21875-0.76562 0-0.34375 0.082031-0.60938 0.25-0.79688 0.17578-0.19531 0.41016-0.29688 0.70312-0.29688 0.09375 0 0.17969 0.011719 0.26562 0.03125 0.09375 0.011719 0.17969 0.03125 0.26562 0.0625z"/>
  </symbol>
  <symbol id="q" overflow="visible">
   <path d="m1.2344-2.125v0.32812h-0.26562c-0.0625 0-0.10938 0.011719-0.14062 0.03125-0.03125 0.023437-0.046875 0.0625-0.046875 0.125v0.10938h0.42188v0.34375h-0.42188v1.1875h-0.48438v-1.1875h-0.25v-0.34375h0.25v-0.10938c0-0.16406 0.046875-0.28516 0.14062-0.35938 0.09375-0.082031 0.23828-0.125 0.4375-0.125z"/>
  </symbol>
  <symbol id="d" overflow="visible">
   <path d="m0.96875-1.2188c-0.11719 0-0.20312 0.042969-0.26562 0.125-0.054687 0.074219-0.078125 0.18359-0.078125 0.32812 0 0.14844 0.023438 0.26172 0.078125 0.34375 0.0625 0.074219 0.14844 0.10938 0.26562 0.10938 0.10156 0 0.17969-0.035156 0.23438-0.10938 0.0625-0.082031 0.09375-0.19531 0.09375-0.34375 0-0.14453-0.03125-0.25391-0.09375-0.32812-0.054687-0.082031-0.13281-0.125-0.23438-0.125zm0-0.34375c0.25781 0 0.46094 0.074219 0.60938 0.21875 0.14453 0.13672 0.21875 0.32812 0.21875 0.57812s-0.074219 0.44922-0.21875 0.59375c-0.14844 0.14844-0.35156 0.21875-0.60938 0.21875-0.27344 0-0.48047-0.070312-0.625-0.21875-0.14844-0.14453-0.21875-0.34375-0.21875-0.59375s0.070312-0.44141 0.21875-0.57812c0.14453-0.14453 0.35156-0.21875 0.625-0.21875z"/>
  </symbol>
  <symbol id="p" overflow="visible">
   <path d="m1.6562-1.2812c0.0625-0.09375 0.13281-0.16016 0.21875-0.20312 0.082031-0.050781 0.17578-0.078125 0.28125-0.078125 0.17578 0 0.30469 0.058594 0.39062 0.17188 0.09375 0.10547 0.14062 0.25781 0.14062 0.45312v0.9375h-0.48438v-0.79688-0.03125-0.0625c0-0.10156-0.015625-0.17969-0.046875-0.23438-0.03125-0.050781-0.085938-0.078125-0.15625-0.078125-0.09375 0-0.16797 0.042969-0.21875 0.125-0.042969 0.074219-0.070312 0.18359-0.078125 0.32812v0.75h-0.48438v-0.79688c0-0.16406-0.015625-0.27344-0.046875-0.32812-0.03125-0.050781-0.085937-0.078125-0.15625-0.078125-0.09375 0-0.16797 0.042969-0.21875 0.125-0.054687 0.074219-0.078125 0.18359-0.078125 0.32812v0.75h-0.48438v-1.5312h0.48438v0.21875c0.0625-0.082031 0.12891-0.14453 0.20312-0.1875 0.082031-0.039062 0.17188-0.0625 0.26562-0.0625 0.10156 0 0.19531 0.027344 0.28125 0.078125 0.082031 0.054687 0.14453 0.12109 0.1875 0.20312z"/>
  </symbol>
  <symbol id="o" overflow="visible">
   <path d="m1.7656-0.9375v0.9375h-0.48438v-0.70312c0-0.13281-0.007812-0.22656-0.015625-0.28125 0-0.050781-0.011719-0.085937-0.03125-0.10938-0.011719-0.03125-0.039063-0.054688-0.078125-0.078125-0.03125-0.019531-0.070312-0.03125-0.10938-0.03125-0.09375 0-0.17188 0.042969-0.23438 0.125-0.0625 0.074219-0.09375 0.18359-0.09375 0.32812v0.75h-0.48438v-2.125h0.48438v0.8125c0.070312-0.082031 0.14844-0.14453 0.23438-0.1875 0.082031-0.039062 0.17578-0.0625 0.28125-0.0625 0.17578 0 0.30469 0.058594 0.39062 0.17188 0.09375 0.10547 0.14062 0.25781 0.14062 0.45312z"/>
  </symbol>
  <symbol id="n" overflow="visible">
   <path d="m0.25-2.0312h0.59375l0.73438 1.3906v-1.3906h0.5v2.0312h-0.57812l-0.75-1.4062v1.4062h-0.5z"/>
  </symbol>
  <symbol id="m" overflow="visible">
   <path d="m0.25-2.0312h0.875c0.25781 0 0.45703 0.058594 0.59375 0.17188 0.14453 0.11719 0.21875 0.27734 0.21875 0.48438 0 0.21875-0.074219 0.38672-0.21875 0.5-0.13672 0.11719-0.33594 0.17188-0.59375 0.17188h-0.34375v0.70312h-0.53125zm0.53125 0.375v0.5625h0.29688c0.09375 0 0.16406-0.019531 0.21875-0.0625 0.0625-0.050781 0.09375-0.125 0.09375-0.21875s-0.03125-0.16016-0.09375-0.20312c-0.054687-0.050781-0.125-0.078125-0.21875-0.078125z"/>
  </symbol>
  <symbol id="l" overflow="visible">
   <path d="m0.23438-1.5312h0.48438v1.5c0 0.20703-0.054688 0.36328-0.15625 0.46875-0.09375 0.11328-0.23047 0.17188-0.40625 0.17188h-0.25v-0.32812h0.078125c0.09375 0 0.15625-0.023438 0.1875-0.0625 0.039063-0.042969 0.0625-0.125 0.0625-0.25zm0-0.59375h0.48438v0.40625h-0.48438z"/>
  </symbol>
  <symbol id="k" overflow="visible">
   <path d="m1.4688-1.4844v0.40625c-0.0625-0.050781-0.13281-0.085937-0.20312-0.10938-0.0625-0.019531-0.13281-0.03125-0.20312-0.03125-0.13672 0-0.24609 0.042969-0.32812 0.125-0.074219 0.074219-0.10938 0.18359-0.10938 0.32812 0 0.14844 0.035156 0.26172 0.10938 0.34375 0.082031 0.074219 0.19141 0.10938 0.32812 0.10938 0.070312 0 0.14453-0.007812 0.21875-0.03125 0.070312-0.019531 0.13281-0.050781 0.1875-0.09375v0.39062c-0.074219 0.03125-0.15234 0.050781-0.23438 0.0625-0.074219 0.019531-0.15234 0.03125-0.23438 0.03125-0.27344 0-0.48438-0.070312-0.64062-0.21875-0.15625-0.14453-0.23438-0.34375-0.23438-0.59375s0.078125-0.44141 0.23438-0.57812c0.15625-0.14453 0.36719-0.21875 0.64062-0.21875 0.082031 0 0.16016 0.007812 0.23438 0.015625 0.082031 0.011719 0.16016 0.03125 0.23438 0.0625z"/>
  </symbol>
 </defs>
 <path d="m441.5 318.98v-75.152l16.52 16.52c8.0078 8.0078 20.945 8.0078 28.895 0l59.191-59.191h36.512c11.312 0 20.441 9.1289 20.441 20.441v120.73c0 11.312-9.1289 20.441-20.441 20.441h-37.016l-59.469-59.531c-8.0078-8.0078-20.945-8.0078-28.895 0z"/>
 <path d="m432.21 86.574 25.816-25.816c8.0078-8.0078 20.945-8.0078 28.895 0l85.402 85.348c7.9531 8.0078 7.9531 20.945 0 28.895l-26.152 26.152h-84.223c-11.312 0-20.441 9.1289-20.441 20.441v22.23l-53.145-53.145h23.352c11.312 0 20.441-9.1289 20.441-20.441v-83.664z"/>
 <path d="m329.79 145.27-59.137-59.195v-36.512c0-11.312 9.1289-20.441 20.441-20.441h120.73c11.312 0 20.441 9.1289 20.441 20.441v37.016l-59.586 59.531c-8.0078 8.0078-8.0078 20.945 0 28.895l15.68 15.68h-75.094l16.52-16.52c8.0078-7.9531 8.0078-20.887 0-28.895z"/>
 <path d="m457.24 502.88-26.152-26.152 0.003906-84.223c0-11.312-9.1289-20.441-20.441-20.441h-22.23l53.145-53.145v23.352c0 11.312 9.1289 20.441 20.441 20.441h83.719l25.816 25.816c8.0078 8.0078 8.0078 20.945 0 28.895l-85.402 85.457c-8.0078 7.9531-20.945 7.9531-28.898 0z"/>
 <path d="m313.27 372.06h75.152l-16.523 16.578c-8.0078 8.0078-8.0078 20.945 0 28.895l59.191 59.191v36.512c0 11.312-9.1289 20.441-20.441 20.441h-120.73c-11.312 0-20.441-9.1289-20.441-20.441v-37.016l59.527-59.527c8.0078-8.0078 8.0078-20.945 0-28.895z"/>
 <path d="m214.7 502.04-85.344-85.344c-7.9531-8.0078-7.9531-20.945 0-28.895l26.152-26.152h84.168c11.312 0 20.441-9.1289 20.441-20.441v-22.23l53.145 53.145h-23.352c-11.312 0-20.441 9.1289-20.441 20.441v83.719l-25.871 25.758c-7.9531 8.0078-20.891 8.0078-28.898 0z"/>
 <path d="m130.2 145.27 85.344-85.344c8.0078-7.9531 20.945-7.9531 28.895 0l26.152 26.152v84.168c0 11.312 9.1289 20.441 20.441 20.441h22.23l-53.145 53.145v-23.352c0-11.312-9.1289-20.441-20.441-20.441l-83.66-0.003906-25.816-25.871c-8.0078-7.9531-8.0078-20.887 0-28.895z"/>
 <path d="m155.51 361.59h-36.512c-11.312 0-20.441-9.1289-20.441-20.441v-120.68c0-11.312 9.1289-20.441 20.441-20.441h37.016l59.527 59.527c8.0078 8.0078 20.945 8.0078 28.895 0l15.68-15.68v75.152l-16.516-16.574c-8.0078-8.0078-20.945-8.0078-28.895 0z"/>
 <path transform="matrix(.56 0 0 .56 70 -6.3665e-14)" d="m646.8 154.6v149.5c0 20.201-16.302 36.503-36.503 36.503h-215.59c-20.201 0-36.503-16.302-36.503-36.503v-215.6c0-20.201 16.302-36.503 36.503-36.503h215.6c20.201 0 36.503 16.302 36.503 36.503z" fill="none" stroke="#000" stroke-miterlimit="10"/>
 <path transform="matrix(.56 0 0 .56 70 -6.3665e-14)" d="m850.3 359.3-105.7 105.6c-14.202 14.3-37.298 14.3-51.597 0l-152.4-152.4c-14.3-14.3-14.3-37.402 0-51.597l152.4-152.4c14.3-14.3 37.402-14.3 51.597 0l152.4 152.4c14.202 14.3 14.202 37.402 0 51.597z" fill="none" stroke="#000" stroke-miterlimit="10"/>
 <path transform="matrix(.56 0 0 .56 70 -6.3665e-14)" d="m849.4 647.8h-149.5c-20.201 0-36.503-16.302-36.503-36.503v-215.6c0-20.201 16.302-36.503 36.503-36.503h215.5c20.201 0 36.503 16.302 36.503 36.503v215.6c0 20.201-16.302 36.503-36.503 36.503z" fill="none" stroke="#000" stroke-miterlimit="10"/>
 <path transform="matrix(.56 0 0 .56 70 -6.3665e-14)" d="m644.7 851.3-105.6-105.7c-14.3-14.202-14.3-37.298 0-51.597l152.4-152.4c14.3-14.3 37.402-14.3 51.597 0l152.4 152.4c14.3 14.3 14.3 37.402 0 51.597l-152.39 152.4c-14.3 14.202-37.402 14.202-51.597 0z" fill="none" stroke="#000" stroke-miterlimit="10"/>
 <path transform="matrix(.56 0 0 .56 70 -6.3665e-14)" d="m356.2 850.4v-149.5c0-20.201 16.302-36.503 36.503-36.503h215.6c20.201 0 36.503 16.302 36.503 36.503v215.5c0 20.201-16.302 36.503-36.503 36.503h-215.6c-20.201 0-36.503-16.302-36.503-36.503z" fill="none" stroke="#000" stroke-miterlimit="10"/>
 <path transform="matrix(.56 0 0 .56 70 -6.3665e-14)" d="m152.7 645.7 105.7-105.7c14.202-14.3 37.298-14.3 51.597 0l152.4 152.4c14.3 14.3 14.3 37.402 0 51.597l-106.19 106.4-46.198 46.101c-14.3 14.3-37.402 14.3-51.597 0l-152.41-152.4c-14.202-14.3-14.202-37.402 0-51.597l46.701-46.798" fill="none" stroke="#000" stroke-miterlimit="10"/>
 <path transform="matrix(.56 0 0 .56 70 -6.3665e-14)" d="m153.6 357.2h149.5c20.201 0 36.503 16.302 36.503 36.503v215.6c0 20.201-16.302 36.503-36.503 36.503h-215.6c-20.201 0-36.503-16.302-36.503-36.503v-215.6c0-20.201 16.302-36.503 36.503-36.503z" fill="none" stroke="#000" stroke-miterlimit="10"/>
 <path transform="matrix(.56 0 0 .56 70 -6.3665e-14)" d="m358.3 153.7 105.7 105.7c14.3 14.202 14.3 37.298 0 51.597l-152.4 152.4c-14.3 14.3-37.402 14.3-51.597 0l-106.4-106.19-46.101-46.198c-14.3-14.3-14.3-37.402 0-51.597l152.4-152.4c14.3-14.202 37.402-14.202 51.597 0z" fill="none" stroke="#000" stroke-miterlimit="10"/>
 <g>
  <use x="70" y="568.398438" xlink:href="#v"/>
  <use x="72.054688" y="568.398438" xlink:href="#c"/>
  <use x="73.4375" y="568.398438" xlink:href="#b"/>
  <use x="75.335938" y="568.398438" xlink:href="#j"/>
  <use x="77.222656" y="568.398438" xlink:href="#a"/>
  <use x="78.5625" y="568.398438" xlink:href="#b"/>
  <use x="80.460938" y="568.398438" xlink:href="#i"/>
  <use x="83.441406" y="568.398438" xlink:href="#h"/>
  <use x="85.445312" y="568.398438" xlink:href="#g"/>
  <use x="88.246094" y="568.398438" xlink:href="#e"/>
  <use x="90.238281" y="568.398438" xlink:href="#u"/>
  <use x="91.199219" y="568.398438" xlink:href="#a"/>
  <use x="92.535156" y="568.398438" xlink:href="#f"/>
  <use x="94.53125" y="568.398438" xlink:href="#a"/>
  <use x="95.867188" y="568.398438" xlink:href="#t"/>
  <use x="97.816406" y="568.398438" xlink:href="#s"/>
  <use x="99.765625" y="568.398438" xlink:href="#r"/>
  <use x="70" y="571.199219" xlink:href="#q"/>
  <use x="71.21875" y="571.199219" xlink:href="#c"/>
  <use x="72.597656" y="571.199219" xlink:href="#d"/>
  <use x="74.523438" y="571.199219" xlink:href="#p"/>
  <use x="78.414063" y="571.199219" xlink:href="#a"/>
  <use x="79.753906" y="571.199219" xlink:href="#o"/>
  <use x="81.746094" y="571.199219" xlink:href="#b"/>
  <use x="84.621094" y="571.199219" xlink:href="#n"/>
  <use x="86.964844" y="571.199219" xlink:href="#d"/>
  <use x="88.886719" y="571.199219" xlink:href="#f"/>
  <use x="90.882812" y="571.199219" xlink:href="#e"/>
  <use x="93.847656" y="571.199219" xlink:href="#m"/>
  <use x="95.902344" y="571.199219" xlink:href="#c"/>
  <use x="97.28125" y="571.199219" xlink:href="#d"/>
  <use x="99.207031" y="571.199219" xlink:href="#l"/>
  <use x="100.164062" y="571.199219" xlink:href="#b"/>
  <use x="102.066406" y="571.199219" xlink:href="#k"/>
  <use x="103.722656" y="571.199219" xlink:href="#a"/>
 </g>
</svg>
