<svg xmlns="http://www.w3.org/2000/svg" xmlns:xlink="http://www.w3.org/1999/xlink" version="1.1" x="0px" y="0px" viewBox="0 0 300 375" style="enable-background:new 0 0 300 300;" xml:space="preserve"><g><path d="M277,244.1c0-0.2,0-0.3,0-0.5c0,0,0,0,0,0c0-0.2-0.1-0.3-0.2-0.5c0,0,0-0.1-0.1-0.1c-0.1-0.2-0.2-0.3-0.3-0.4L260.8,227   c-0.8-0.8-2-0.8-2.8,0c-0.8,0.8-0.8,2,0,2.8l12.2,12.2H58.3V30.1l12.2,12.2c0.4,0.4,0.9,0.6,1.4,0.6s1-0.2,1.4-0.6   c0.8-0.8,0.8-2,0-2.8L57.7,23.8c0,0-0.1,0-0.1-0.1c0,0-0.1-0.1-0.1-0.1c-0.1-0.1-0.3-0.2-0.4-0.3c0,0,0,0,0,0c0,0,0,0,0,0   c-0.2-0.1-0.3-0.1-0.5-0.1c0,0-0.1,0-0.1,0c-0.2,0-0.3,0-0.5,0c0,0,0,0,0,0c-0.2,0-0.3,0.1-0.5,0.2c0,0-0.1,0-0.1,0.1   c-0.2,0.1-0.3,0.2-0.4,0.3L39.2,39.5c-0.8,0.8-0.8,2,0,2.8c0.8,0.8,2,0.8,2.8,0l12.2-12.2V242H25c-1.1,0-2,0.9-2,2s0.9,2,2,2h29.3   v29.3c0,1.1,0.9,2,2,2s2-0.9,2-2V246h211.9L258,258.2c-0.8,0.8-0.8,2,0,2.8c0.4,0.4,0.9,0.6,1.4,0.6s1-0.2,1.4-0.6l15.6-15.6   c0,0,0.1-0.1,0.1-0.1c0,0,0.1-0.1,0.1-0.1c0.1-0.1,0.2-0.3,0.3-0.4c0,0,0,0,0,0c0,0,0,0,0,0c0.1-0.2,0.1-0.3,0.1-0.5   C277,244.2,277,244.2,277,244.1z"/><path d="M126.6,215.3c16,0,30.1-27.5,40.9-79.4c0.2,0.1,0.3,0.2,0.5,0.2h10c0.6,0,1-0.4,1-1s-0.4-1-1-1h-10c-0.1,0-0.1,0-0.2,0   c10-48,23.4-75.5,36.8-75.5c13.5,0,27,28,37.1,76.8c0.2,1.1,1.3,1.8,2.4,1.6c1.1-0.2,1.8-1.3,1.6-2.4c-10.8-52.3-25-80-41-80   s-30.2,27.7-41,80c-10.1,48.8-23.6,76.8-37.1,76.8c-13.4,0-26.7-27.4-36.8-75.3H98c0.6,0,1-0.4,1-1s-0.4-1-1-1h-8.7   c-0.4-0.8-1.3-1.3-2.2-1.1c-1.1,0.2-1.8,1.3-1.6,2.4C96.3,187.6,110.5,215.3,126.6,215.3z"/><path d="M128,136h10c0.6,0,1-0.4,1-1s-0.4-1-1-1h-10c-0.6,0-1,0.4-1,1S127.4,136,128,136z"/><path d="M148,136h10c0.6,0,1-0.4,1-1s-0.4-1-1-1h-10c-0.6,0-1,0.4-1,1S147.4,136,148,136z"/><path d="M108,136h10c0.6,0,1-0.4,1-1s-0.4-1-1-1h-10c-0.6,0-1,0.4-1,1S107.4,136,108,136z"/><path d="M188,134c-0.6,0-1,0.4-1,1s0.4,1,1,1h10c0.6,0,1-0.4,1-1s-0.4-1-1-1H188z"/><path d="M228,134c-0.6,0-1,0.4-1,1s0.4,1,1,1h10c0.6,0,1-0.4,1-1s-0.4-1-1-1H228z"/><path d="M208,134c-0.6,0-1,0.4-1,1s0.4,1,1,1h10c0.6,0,1-0.4,1-1s-0.4-1-1-1H208z"/></g><text x="0" y="315" fill="#000000" font-size="5px" font-weight="bold" font-family="'Helvetica Neue', Helvetica, Arial-Unicode, Arial, Sans-serif">Created by Bastien Delmare</text><text x="0" y="320" fill="#000000" font-size="5px" font-weight="bold" font-family="'Helvetica Neue', Helvetica, Arial-Unicode, Arial, Sans-serif">from the Noun Project</text></svg>