<?xml version="1.0" encoding="UTF-8"?>
<svg width="161px" height="162px" viewBox="0 0 161 162" version="1.1" xmlns="http://www.w3.org/2000/svg" xmlns:xlink="http://www.w3.org/1999/xlink">
    <!-- Generator: Sketch 63.1 (92452) - https://sketch.com -->
    <title>Group</title>
    <desc>Created with Sketch.</desc>
    <g id="Page-1" stroke="none" stroke-width="1" fill="none" fill-rule="evenodd">
        <g id="noun_Graph_2155866" transform="translate(-85.000000, 0.000000)" fill="#000000" fill-rule="nonzero">
            <g id="Group" transform="translate(85.000000, 0.000000)">
                <path d="M41.6,161.3 C57.6,161.3 71.7,133.8 82.5,81.9 C82.7,82 82.8,82.1 83,82.1 L93,82.1 C93.6,82.1 94,81.7 94,81.1 C94,80.5 93.6,80.1 93,80.1 L83,80.1 C82.9,80.1 82.9,80.1 82.8,80.1 C92.8,32.1 106.2,4.6 119.6,4.6 C133.1,4.6 146.6,32.6 156.7,81.4 C156.9,82.5 158,83.2 159.1,83 C160.2,82.8 160.9,81.7 160.7,80.6 C149.9,28.3 135.7,0.6 119.7,0.6 C103.7,0.6 89.5,28.3 78.7,80.6 C68.6,129.4 55.1,157.4 41.6,157.4 C28.2,157.4 14.9,130 4.8,82.1 L13,82.1 C13.6,82.1 14,81.7 14,81.1 C14,80.5 13.6,80.1 13,80.1 L4.3,80.1 C3.9,79.3 3,78.8 2.1,79 C1,79.2 0.3,80.3 0.5,81.4 C11.3,133.6 25.5,161.3 41.6,161.3 Z" id="Path"></path>
                <path d="M43,82 L53,82 C53.6,82 54,81.6 54,81 C54,80.4 53.6,80 53,80 L43,80 C42.4,80 42,80.4 42,81 C42,81.6 42.4,82 43,82 Z" id="Path"></path>
                <path d="M63,82 L73,82 C73.6,82 74,81.6 74,81 C74,80.4 73.6,80 73,80 L63,80 C62.4,80 62,80.4 62,81 C62,81.6 62.4,82 63,82 Z" id="Path"></path>
                <path d="M23,82 L33,82 C33.6,82 34,81.6 34,81 C34,80.4 33.6,80 33,80 L23,80 C22.4,80 22,80.4 22,81 C22,81.6 22.4,82 23,82 Z" id="Path"></path>
                <path d="M103,80 C102.4,80 102,80.4 102,81 C102,81.6 102.4,82 103,82 L113,82 C113.6,82 114,81.6 114,81 C114,80.4 113.6,80 113,80 L103,80 Z" id="Path"></path>
                <path d="M143,80 C142.4,80 142,80.4 142,81 C142,81.6 142.4,82 143,82 L153,82 C153.6,82 154,81.6 154,81 C154,80.4 153.6,80 153,80 L143,80 Z" id="Path"></path>
                <path d="M123,80 C122.4,80 122,80.4 122,81 C122,81.6 122.4,82 123,82 L133,82 C133.6,82 134,81.6 134,81 C134,80.4 133.6,80 133,80 L123,80 Z" id="Path"></path>
            </g>
        </g>
    </g>
</svg>